<?xml version="1.0" encoding="utf-8"?>
<!-- Generator: Adobe Illustrator 17.1.0, SVG Export Plug-In . SVG Version: 6.00 Build 0)  -->
<!DOCTYPE svg PUBLIC "-//W3C//DTD SVG 1.1//EN" "http://www.w3.org/Graphics/SVG/1.1/DTD/svg11.dtd">
<svg version="1.1" id="Layer_1" xmlns="http://www.w3.org/2000/svg" xmlns:xlink="http://www.w3.org/1999/xlink" x="0px" y="0px"
	 viewBox="0 0 15 45" enable-background="new 0 0 15 45" xml:space="preserve">
<g>
	<path fill="#FFFFFF" d="M12.531,13.414l-3.289-3.289c-0.891,0.695-1.984,1.078-3.141,1.078c-1.359,0-2.641-0.531-3.609-1.492
		C1.531,8.75,1,7.469,1,6.102s0.531-2.648,1.492-3.609C3.461,1.531,4.742,1,6.102,1C7.469,1,8.75,1.531,9.711,2.492
		c0.969,0.961,1.5,2.242,1.5,3.609c0,1.156-0.391,2.25-1.086,3.141l3.289,3.289L12.531,13.414z M6.102,9.961
		c1.031,0,2-0.398,2.734-1.133c0.727-0.727,1.125-1.695,1.125-2.727s-0.398-2-1.125-2.734C8.102,2.641,7.133,2.242,6.102,2.242
		s-2,0.398-2.727,1.125C2.641,4.102,2.242,5.07,2.242,6.102s0.398,2,1.125,2.727C4.102,9.562,5.07,9.961,6.102,9.961z"/>
</g>
<g>
	<path fill="#FFFFFF" d="M1.781,19.891L2.664,19l4.727,4.727L12.117,19L13,19.891L7.391,25.5L1.781,19.891z"/>
</g>
<g>
	<path fill="#FFFFFF" d="M7.391,34L13,39.609L12.117,40.5l-4.727-4.727L2.664,40.5l-0.883-0.891L7.391,34z"/>
</g>
</svg>
